<?xml version="1.0" standalone="no"?>
<!DOCTYPE svg PUBLIC "-//W3C//DTD SVG 20010904//EN"
 "http://www.w3.org/TR/2001/REC-SVG-20010904/DTD/svg10.dtd">
<svg version="1.0" xmlns="http://www.w3.org/2000/svg"
 width="1187.000000pt" height="1280.000000pt" viewBox="0 0 1187.000000 1280.000000"
 preserveAspectRatio="xMidYMid meet">
<metadata>
Created by potrace 1.15, written by Peter Selinger 2001-2017
</metadata>
<g transform="translate(0.000000,1280.000000) scale(0.100000,-0.100000)"
fill="#000000" stroke="none">
<path d="M4387 12778 c-13 -50 -26 -210 -32 -383 -9 -258 -23 -409 -46 -497
-21 -77 -69 -168 -89 -168 -36 0 -189 -487 -264 -840 -126 -593 -155 -1092
-86 -1480 28 -152 91 -340 150 -442 l47 -83 7 -130 c5 -71 9 -143 10 -159 1
-26 -3 -30 -48 -41 -26 -7 -52 -19 -57 -26 -15 -22 -2 -78 26 -115 15 -19 25
-43 23 -54 -2 -10 -156 -169 -343 -352 -1563 -1530 -2924 -3082 -3319 -3786
-55 -97 -55 -100 -62 -203 -3 -57 -1 -150 5 -206 l11 -103 -91 -292 c-124
-402 -180 -629 -214 -860 l-16 -107 71 -128 c206 -369 392 -566 588 -624 l43
-12 -6 -41 c-13 -99 -24 -440 -14 -452 5 -6 57 -49 114 -94 303 -237 621 -406
868 -460 150 -33 313 -19 426 37 77 37 179 142 246 253 126 207 247 533 357
961 24 92 47 168 53 170 24 10 205 -302 467 -806 277 -531 421 -750 650 -986
190 -196 359 -279 539 -265 250 18 364 174 376 512 9 241 -20 365 -155 665
-38 85 -74 170 -81 189 -16 51 -29 130 -22 130 10 0 158 -154 346 -358 92
-101 204 -215 248 -254 96 -84 422 -328 594 -445 329 -222 526 -263 749 -157
96 45 175 106 324 250 132 127 172 154 267 179 92 24 187 19 382 -21 299 -62
474 -58 620 15 75 37 460 295 530 355 108 94 166 181 196 297 15 54 16 92 10
244 -5 148 -3 194 10 260 61 294 241 589 411 674 37 19 58 22 112 19 132 -7
213 -73 372 -298 168 -238 289 -345 514 -451 419 -197 881 -230 1181 -84 108
53 105 42 42 134 l-55 80 35 38 c58 63 84 111 98 187 16 84 29 121 46 132 7 4
52 13 102 20 103 16 161 43 194 93 42 62 24 129 -64 243 -54 68 -210 289 -538
763 -234 337 -513 730 -603 850 l-60 79 42 61 c24 33 53 77 65 97 l22 38 -28
52 c-73 136 -498 506 -962 838 -73 52 -160 115 -194 140 -144 106 -1132 1229
-1817 2065 -168 205 -224 282 -313 430 -122 201 -177 308 -177 343 0 28 14 56
52 102 37 46 36 81 -5 127 -52 60 -77 95 -77 109 0 7 11 23 24 36 38 36 216
477 281 695 96 326 115 576 65 868 -63 364 -243 769 -565 1270 -65 101 -109
180 -119 215 -24 84 -52 257 -92 560 -19 151 -38 278 -40 282 -3 5 -9 6 -14 3
-4 -2 -76 -5 -159 -6 l-151 0 0 -24 c0 -19 -22 -37 -117 -98 -140 -88 -377
-229 -596 -355 l-158 -91 -130 76 c-261 149 -542 326 -633 396 -37 29 -38 32
-34 79 6 59 16 53 -181 103 -75 19 -146 37 -157 40 -17 5 -23 2 -27 -17z
m1847 -490 c-214 -302 -289 -399 -305 -395 -9 3 -63 30 -119 62 l-103 58 73
41 c40 22 163 96 274 163 110 67 205 122 209 122 5 1 -8 -23 -29 -51z m-1288
-330 c46 -64 84 -120 84 -125 0 -8 -51 -33 -185 -89 l-80 -33 -52 52 -53 51 0
86 c0 48 9 158 20 246 11 87 20 163 20 167 0 5 37 -47 81 -115 45 -67 119
-176 165 -240z m-8 343 c15 -10 125 -77 245 -149 l217 -130 -42 -25 c-24 -13
-71 -38 -104 -55 l-61 -31 -100 137 c-208 287 -212 294 -155 253z m1550 -219
c52 -328 52 -302 1 -368 -24 -30 -49 -62 -56 -71 -10 -13 -34 -4 -178 72 -111
58 -163 90 -158 98 4 7 57 80 118 162 61 83 138 187 170 233 32 45 61 82 64
82 3 0 21 -93 39 -208z m-782 -233 c92 -52 141 -85 137 -93 -19 -32 -256 -336
-262 -336 -4 0 -71 82 -150 181 l-142 182 133 73 c73 40 134 73 136 73 2 1 68
-35 148 -80z m-538 -193 c17 -24 92 -121 166 -216 l135 -172 -62 -75 -62 -76
-128 134 c-210 220 -320 339 -316 342 8 6 224 105 230 106 3 1 20 -19 37 -43z
m1155 -149 c-12 -20 -382 -474 -396 -485 -10 -9 -37 17 -123 119 -60 71 -109
135 -108 142 1 7 69 101 153 208 l152 195 165 -83 c112 -57 162 -88 157 -96z
m-591 -543 l78 -81 -55 -52 c-41 -39 -59 -50 -71 -43 -24 14 -224 202 -224
212 0 5 26 39 57 75 l57 67 40 -48 c22 -27 76 -85 118 -130z"/>
</g>
</svg>
